<?xml version="1.0" encoding="UTF-8" standalone="no"?>
<!-- Generator: Adobe Illustrator 21.1.0, SVG Export Plug-In . SVG Version: 6.00 Build 0)  -->

<svg
   xmlns:dc="http://purl.org/dc/elements/1.1/"
   xmlns:cc="http://creativecommons.org/ns#"
   xmlns:rdf="http://www.w3.org/1999/02/22-rdf-syntax-ns#"
   xmlns:svg="http://www.w3.org/2000/svg"
   xmlns="http://www.w3.org/2000/svg"
   xmlns:sodipodi="http://sodipodi.sourceforge.net/DTD/sodipodi-0.dtd"
   xmlns:inkscape="http://www.inkscape.org/namespaces/inkscape"
   version="1.1"
   id="Layer_1"
   x="0px"
   y="0px"
   viewBox="0 0 366 366"
   style="enable-background:new 0 0 366 366;"
   xml:space="preserve"
   inkscape:version="0.91 r13725"
   sodipodi:docname="acesso-cidadao.svg"><metadata
     id="metadata9"><rdf:RDF><cc:Work
         rdf:about=""><dc:format>image/svg+xml</dc:format><dc:type
           rdf:resource="http://purl.org/dc/dcmitype/StillImage" /><dc:title></dc:title></cc:Work></rdf:RDF></metadata><defs
     id="defs7" /><sodipodi:namedview
     pagecolor="#ffffff"
     bordercolor="#666666"
     borderopacity="1"
     objecttolerance="10"
     gridtolerance="10"
     guidetolerance="10"
     inkscape:pageopacity="0"
     inkscape:pageshadow="2"
     inkscape:window-width="859"
     inkscape:window-height="480"
     id="namedview5"
     showgrid="false"
     inkscape:zoom="0.64480874"
     inkscape:cx="183"
     inkscape:cy="183"
     inkscape:window-x="10"
     inkscape:window-y="34"
     inkscape:window-maximized="0"
     inkscape:current-layer="Layer_1" /><path
     d="M183,366C81.9,366,0,284.1,0,183S81.9,0,183,0s183,81.9,183,183S284.1,366,183,366z M284.4,313.7c-1.4-2-3.1-4.5-4.5-6.5  c-2.4-3.4-4.8-6.9-7-10.3c-0.1-0.2-12-16.2-55-18.1c-15,0-25.8-11.2-25.9-26.7l-0.3-8.1c0-1.2-0.1,1.3,0,0v-8.7l8.7-8.7  c6.4-3,14.5-7.9,20.9-12.8l1.2-0.8c5.1-3.2,12.1-10,12.8-12.6l0.3-3.3c3.3-16.8,8.4-47.2,8.4-57.7c0-41-20-61-61-61  c-41.6,0-61,19.4-61,61c0,10.7,5.2,41.1,8.4,57.7l0.3,3.1c0.5,2.7,7,9.2,12.6,12.7l0.9,0.5c6.9,4.8,15.1,10.2,21.4,13.1l8.7,8.7v8.7  c0.1,1.2,0-1.3,0,0l-0.3,8.1c0,15.5-10.9,26.7-25.1,26.7c0,0,0,0,0,0c-43.2,1.8-55.7,18.1-55.7,18.1c-2.2,3.5-4.6,6.9-7,10.3  c-1.4,2-3.1,4.4-4.5,6.5c28,21.8,63.1,34.9,101.4,34.9S256.3,335.5,284.4,313.7z M183,17.4C91.6,17.4,17.4,91.6,17.4,183  c0,46.9,19.6,89.2,51,119.3c3.3-4.9,6.9-9.8,10-14.8c0,0,14.6-23.9,69.7-26.1c5.6,0,8.4-3.7,8.4-9.3h0c0-4.5,0-8.1,0-8.1  c0-1.1-0.2-2.2-0.2-3.3c-6.3-3-13.6-7.1-22.1-13c0,0-20.9-12.9-20.9-27.3c0,0-8.7-44.6-8.7-61C104.6,99,121.9,61,183,61  c60.3,0,78.4,38,78.4,78.4c0,16-8.7,61-8.7,61c0,14-20.9,27.3-20.9,27.3c-8.3,6.3-15.7,10.5-22.2,13.5c0,0.9-0.2,1.8-0.2,2.8  c0,0,0,3.6,0,8.1h0c0,5.6,2.8,9.3,8.4,9.3c56,2.5,69.7,26.1,69.7,26.1c3.1,4.9,6.7,9.8,10,14.8c31.4-30.1,51-72.4,51-119.3  C348.6,91.6,274.4,17.4,183,17.4z"
     id="path3"
     style="fill:#545454;fill-opacity:1" /></svg>