<?xml version="1.0" encoding="UTF-8" standalone="no"?>
<!-- Generator: Adobe Illustrator 21.1.0, SVG Export Plug-In . SVG Version: 6.00 Build 0)  -->

<svg
   xmlns:dc="http://purl.org/dc/elements/1.1/"
   xmlns:cc="http://creativecommons.org/ns#"
   xmlns:rdf="http://www.w3.org/1999/02/22-rdf-syntax-ns#"
   xmlns:svg="http://www.w3.org/2000/svg"
   xmlns="http://www.w3.org/2000/svg"
   xmlns:sodipodi="http://sodipodi.sourceforge.net/DTD/sodipodi-0.dtd"
   xmlns:inkscape="http://www.inkscape.org/namespaces/inkscape"
   version="1.1"
   id="Capa_1"
   x="0px"
   y="0px"
   viewBox="0 0 366 352.7"
   style="enable-background:new 0 0 366 352.7;"
   xml:space="preserve"
   inkscape:version="0.91 r13725"
   sodipodi:docname="acoes-de-governo.svg"><metadata
     id="metadata19"><rdf:RDF><cc:Work
         rdf:about=""><dc:format>image/svg+xml</dc:format><dc:type
           rdf:resource="http://purl.org/dc/dcmitype/StillImage" /><dc:title></dc:title></cc:Work></rdf:RDF></metadata><defs
     id="defs17" /><sodipodi:namedview
     pagecolor="#ffffff"
     bordercolor="#666666"
     borderopacity="1"
     objecttolerance="10"
     gridtolerance="10"
     guidetolerance="10"
     inkscape:pageopacity="0"
     inkscape:pageshadow="2"
     inkscape:window-width="859"
     inkscape:window-height="480"
     id="namedview15"
     showgrid="false"
     inkscape:zoom="0.66912388"
     inkscape:cx="183"
     inkscape:cy="176.35001"
     inkscape:window-x="10"
     inkscape:window-y="34"
     inkscape:window-maximized="0"
     inkscape:current-layer="Capa_1" /><style
     type="text/css"
     id="style3">
	.st0{fill:#000002;}
</style><g
     id="g5"
     style="fill:#545454;fill-opacity:1"><path
       class="st0"
       d="M204.8,174.2c-6.2,0-11.7-3.6-13.9-9.1c-2.3-5.7-0.8-12.4,3.8-16.6c5.2-4.7,5.8-12.8,1.5-18.3   c-5.2-6.5-11-12.5-17.4-17.6c-2.4-1.9-5.4-3-8.4-3c-3.8,0-7.4,1.6-10,4.4c-2.6,2.9-7,4.7-11.4,4.7c-1.9,0-3.7-0.3-5.2-1   c-5.8-2.4-9.4-8.3-9-14.5c0.4-7.1-4.8-13.3-11.9-14.2c-8.2-0.9-16.6-1-24.7-0.1C91,89.9,85.7,96,86,103c0.2,6.2-3.5,12-9.1,14.3   c-1.5,0.6-3.3,0.9-5.1,0.9c-4.4,0-8.8-1.8-11.5-4.7c-2.5-2.8-6.2-4.4-10-4.4c-3,0-5.9,1-8.3,2.9c-6.6,5.2-12.6,11.1-17.8,17.6   c-4.4,5.5-3.8,13.6,1.5,18.4c4.7,4.2,6.2,10.9,3.8,16.7c-2.3,5.5-8.2,9-14.9,9c-7.1-0.2-12.9,4.9-13.7,11.9c-1,8.2-1,16.6,0,25   c0.8,7.4,8.1,11.9,14.4,11.9l0.5,0c5.7,0,11,3.7,13.3,9.2c2.3,5.7,0.8,12.3-3.8,16.6c-5.2,4.7-5.8,12.8-1.5,18.2   c5.1,6.5,10.9,12.4,17.4,17.6c2.4,1.9,5.4,3,8.4,3c3.8,0,7.4-1.6,10-4.4c2.7-2.9,7-4.8,11.4-4.8c1.9,0,3.7,0.3,5.2,1   c5.8,2.4,9.4,8.3,9,14.5c-0.4,7.1,4.8,13.3,11.9,14.2c4.2,0.5,8.4,0.7,12.7,0.7c4,0,8.1-0.2,12.1-0.7c7-0.8,12.2-6.9,12-13.9   c-0.2-6.2,3.4-12,9.1-14.3c1.5-0.6,3.3-1,5.1-1c4.4,0,8.8,1.8,11.5,4.8c2.5,2.8,6.2,4.4,9.9,4.4c3,0,5.9-1,8.3-2.9   c6.6-5.2,12.6-11.1,17.8-17.6c4.5-5.5,3.8-13.6-1.4-18.4c-4.7-4.2-6.2-10.9-3.8-16.7c2.3-5.4,7.7-9,13.6-9.1l1,0c0.3,0,0.5,0,0.8,0   h0c6.8,0,12.5-5.1,13.3-11.9c1-8.2,1-16.7,0-25C218.2,178.8,211,174.2,204.8,174.2z M203.8,207.4c-12,0.1-23.1,7.6-27.8,18.6   c-4.7,11.2-2.2,24.2,6.2,32.8c-3.8,4.5-8,8.7-12.6,12.4c-5.6-5.3-13.5-8.4-21.6-8.4c-3.9,0-7.6,0.7-11,2.1   c-11.1,4.5-18.5,15.4-18.8,27.3c-5.8,0.5-11.7,0.5-17.4,0c-0.1-12.1-7.4-23.1-18.6-27.8c-3.5-1.5-7.3-2.2-11.3-2.2   c-8.1,0-16,3.1-21.6,8.4c-4.5-3.7-8.6-7.9-12.3-12.4c8.3-8.6,10.8-21.5,6.2-32.6c-4.6-11.2-15.6-18.7-27.4-18.8   c-0.5-5.9-0.5-11.9,0-17.7c12.4-0.6,23.2-7.7,27.8-18.5c4.7-11.2,2.2-24.2-6.2-32.9c3.8-4.5,8-8.7,12.6-12.4   c5.6,5.3,13.5,8.4,21.6,8.4c3.9,0,7.6-0.7,11-2.1c11.1-4.5,18.5-15.3,18.8-27.3c5.8-0.5,11.6-0.5,17.4,0   c0.1,12.1,7.4,23.1,18.6,27.8c3.5,1.5,7.3,2.2,11.2,2.2c8.1,0,16-3.1,21.6-8.4c4.4,3.7,8.5,7.9,12.3,12.4   c-8.2,8.6-10.8,21.4-6.2,32.6c4.6,11.1,15.2,18.4,27.4,18.8C204.3,195.7,204.3,201.6,203.8,207.4z"
       id="path7"
       style="fill:#545454;fill-opacity:1" /><path
       class="st0"
       d="M110,156.7c-23.1,0-41.8,18.8-41.8,41.8S87,240.4,110,240.4c23.1,0,41.8-18.8,41.8-41.8   C151.9,175.5,133.1,156.7,110,156.7z M110,224.9c-14.5,0-26.3-11.8-26.3-26.3c0-14.5,11.8-26.3,26.3-26.3s26.3,11.8,26.3,26.3   C136.3,213.1,124.5,224.9,110,224.9z"
       id="path9"
       style="fill:#545454;fill-opacity:1" /><path
       class="st0"
       d="M285.4,93c-4.3,0-8.4,0.8-12.4,2.5c-16.5,6.8-24.3,25.8-17.5,42.3c5,12.1,16.8,20,29.9,20   c4.3,0,8.4-0.8,12.4-2.5c16.5-6.8,24.3-25.8,17.5-42.3C310.3,100.8,298.5,93,285.4,93z M292.6,142.7c-2.3,1-4.7,1.4-7.2,1.4   c-7.7,0-14.5-4.6-17.5-11.6c-4-9.6,0.6-20.7,10.2-24.7c2.3-1,4.7-1.4,7.2-1.4c7.7,0,14.5,4.6,17.5,11.6   C306.8,127.7,302.2,138.8,292.6,142.7z"
       id="path11"
       style="fill:#545454;fill-opacity:1" /><path
       class="st0"
       d="M358.6,135.1c-4.1-1.5-6.9-5.3-6.8-9.7c0-4,2.6-7.8,6.3-9.4l0.7-0.3c5.4-1.9,8.5-7.8,6.9-13.4   c-1.7-6.1-4.2-12-7.2-17.6c-1.9-3.4-5.7-5.5-9.9-5.5c-1.6,0-3.2,0.3-4.6,0.9c-1.3,0.6-2.7,0.8-4.1,0.8c-2.7,0-5.3-1.1-7.2-3   c-3-3-3.8-7.7-2-11.6c2.4-5.2,0.4-11.5-4.6-14.3c-5.5-3.1-11.4-5.5-17.4-7.3c-1-0.3-2-0.4-3.1-0.4c-4.7,0-8.8,2.9-10.4,7.3   c-1.3,3.8-5.7,6.8-9.7,6.8c-4.3,0-8.2-2.8-9.6-6.9c-1.5-4.4-5.7-7.4-10.4-7.4c-1,0-2,0.1-3,0.4c-6.1,1.7-11.9,4.1-17.4,7.2   c-5,2.8-7.1,9-4.7,14.2c1.8,3.9,1,8.6-2,11.6c-1.8,1.7-4.6,2.8-7.5,2.8c-1.5,0-2.9-0.3-4.1-0.9c-1.5-0.7-3-1-4.7-1   c-4,0-7.6,2.1-9.6,5.6c-3.1,5.6-5.6,11.5-7.4,17.5c-1.6,5.6,1.4,11.5,6.9,13.5c4.1,1.5,6.8,5.4,6.8,9.7c0,4.1-2.9,7.9-7.2,9.8   c-5.4,2.1-8.2,7.7-6.6,13.3c1.7,6.1,4.2,12,7.2,17.6c1.9,3.4,5.6,5.4,9.9,5.4c1.6,0,3.3-0.3,4.7-0.9l0.2-0.1   c1.2-0.5,2.5-0.8,3.8-0.8c2.7,0,5.4,1.1,7.3,3.1c3,3,3.8,7.7,2,11.6c-2.4,5.2-0.4,11.5,4.6,14.2c5.5,3.1,11.3,5.5,17.3,7.3   c1,0.3,2,0.4,3.1,0.4c4.6,0,8.8-2.9,10.4-7.3c1.3-3.8,5.7-6.8,9.7-6.8c4.3,0,8.2,2.8,9.6,6.9c1.5,4.4,5.7,7.4,10.4,7.4   c1,0,2-0.1,3-0.4c3.1-0.9,6.1-1.9,9.1-3.2c2.8-1.2,5.6-2.5,8.3-4c5-2.8,7.1-9,4.7-14.2c-1.8-3.9-1-8.6,2-11.6   c1.8-1.8,4.6-2.8,7.5-2.8c1.5,0,2.9,0.3,4.2,0.9c1.5,0.7,3,1,4.6,1c0,0,0,0,0,0c3.9,0,7.6-2.1,9.6-5.6c3.1-5.5,5.6-11.4,7.4-17.5   C367.1,143,364,137.1,358.6,135.1z M347.3,157.6c-2.4-0.8-5-1.3-7.7-1.3c-6.5,0-12.6,2.5-17,6.7c-6.5,6.4-8.6,16-5.7,24.6   c-1.6,0.8-3.3,1.6-5,2.3c-1.8,0.7-3.6,1.4-5.5,2c-3.9-8.3-12.2-13.7-21.5-13.7c-8.9,0-17.5,5.6-21.4,13.6   c-3.6-1.2-7.1-2.7-10.5-4.4c3-8.5,0.9-18.2-5.5-24.6c-4.4-4.5-10.6-7-16.9-7c-2.7,0-5.3,0.5-7.8,1.3c-1.8-3.5-3.3-7.1-4.4-10.7   c8.4-4.2,13.7-12.4,13.8-21.3c0-9.2-5.3-17.6-13.6-21.5c1.2-3.7,2.7-7.2,4.5-10.7c2.4,0.8,5,1.3,7.7,1.3c6.5,0,12.7-2.5,17-6.7   c6.5-6.4,8.6-16,5.7-24.6c3.4-1.7,6.9-3.2,10.5-4.3c3.9,8.3,12.2,13.7,21.5,13.7c8.9,0,17.6-5.6,21.5-13.6   c3.6,1.2,7.1,2.6,10.5,4.4c-3,8.5-0.9,18.1,5.5,24.6c4.5,4.5,10.4,7,16.8,7c2.7,0,5.3-0.4,7.8-1.3c1.8,3.5,3.3,7,4.4,10.7   c-8.2,3.9-13.7,12.3-13.7,21.4c0,9.2,5.3,17.6,13.6,21.5C350.6,150.6,349.1,154.2,347.3,157.6z"
       id="path13"
       style="fill:#545454;fill-opacity:1" /></g></svg>