<?xml version="1.0" encoding="UTF-8" standalone="no"?>
<!-- Generator: Adobe Illustrator 21.1.0, SVG Export Plug-In . SVG Version: 6.00 Build 0)  -->

<svg
   xmlns:dc="http://purl.org/dc/elements/1.1/"
   xmlns:cc="http://creativecommons.org/ns#"
   xmlns:rdf="http://www.w3.org/1999/02/22-rdf-syntax-ns#"
   xmlns:svg="http://www.w3.org/2000/svg"
   xmlns="http://www.w3.org/2000/svg"
   xmlns:sodipodi="http://sodipodi.sourceforge.net/DTD/sodipodi-0.dtd"
   xmlns:inkscape="http://www.inkscape.org/namespaces/inkscape"
   version="1.1"
   id="Layer_1"
   x="0px"
   y="0px"
   viewBox="0 0 366 366"
   style="enable-background:new 0 0 366 366;"
   xml:space="preserve"
   inkscape:version="0.91 r13725"
   sodipodi:docname="diario-oficial.svg"><metadata
     id="metadata9"><rdf:RDF><cc:Work
         rdf:about=""><dc:format>image/svg+xml</dc:format><dc:type
           rdf:resource="http://purl.org/dc/dcmitype/StillImage" /><dc:title></dc:title></cc:Work></rdf:RDF></metadata><defs
     id="defs7" /><sodipodi:namedview
     pagecolor="#ffffff"
     bordercolor="#666666"
     borderopacity="1"
     objecttolerance="10"
     gridtolerance="10"
     guidetolerance="10"
     inkscape:pageopacity="0"
     inkscape:pageshadow="2"
     inkscape:window-width="859"
     inkscape:window-height="480"
     id="namedview5"
     showgrid="false"
     inkscape:zoom="0.64480874"
     inkscape:cx="183"
     inkscape:cy="183"
     inkscape:window-x="10"
     inkscape:window-y="34"
     inkscape:window-maximized="0"
     inkscape:current-layer="Layer_1" /><path
     d="M318.3,358L318.3,358c0,4.4-3.6,8-8,8H87.5l0,0c-22,0-39.8-17.8-39.8-39.8V39.8C47.7,17.8,65.5,0,87.5,0l0,0h206.9l0,0  c3.3,0,6.1,2,7.3,4.9c0.4,0.9,0.6,2,0.6,3.1l0,0v55.7l0,0h8l0,0c2.2,0,4.2,0.9,5.7,2.4c1.4,1.4,2.3,3.4,2.3,5.6l0,0V358z   M63.7,326.2L63.7,326.2L63.7,326.2c0,13.2,10.7,23.9,23.9,23.9h23.9V79.6H87.5l0,0c-9,0-17.2-3.1-23.9-8.1V326.2z M286.4,63.7V15.9  H87.5l0,0l0,0c-13.2,0-23.9,10.7-23.9,23.9s10.7,23.9,23.9,23.9H286.4L286.4,63.7z M302.3,79.6h-175v270.5h175V79.6z M87.5,47.7  c-4.4,0-8-3.6-8-8s3.6-8,8-8h175c4.4,0,8,3.6,8,8s-3.6,8-8,8H87.5z"
     id="path3"
     style="fill:#545454;fill-opacity:1" /></svg>