<?xml version="1.0" encoding="UTF-8" standalone="no"?>
<!-- Generator: Adobe Illustrator 21.1.0, SVG Export Plug-In . SVG Version: 6.00 Build 0)  -->

<svg
   xmlns:dc="http://purl.org/dc/elements/1.1/"
   xmlns:cc="http://creativecommons.org/ns#"
   xmlns:rdf="http://www.w3.org/1999/02/22-rdf-syntax-ns#"
   xmlns:svg="http://www.w3.org/2000/svg"
   xmlns="http://www.w3.org/2000/svg"
   xmlns:sodipodi="http://sodipodi.sourceforge.net/DTD/sodipodi-0.dtd"
   xmlns:inkscape="http://www.inkscape.org/namespaces/inkscape"
   version="1.1"
   id="Camada_1"
   x="0px"
   y="0px"
   viewBox="0 0 366 366"
   style="enable-background:new 0 0 366 366;"
   xml:space="preserve"
   inkscape:version="0.91 r13725"
   sodipodi:docname="legislacao-estadual.svg"><metadata
     id="metadata11"><rdf:RDF><cc:Work
         rdf:about=""><dc:format>image/svg+xml</dc:format><dc:type
           rdf:resource="http://purl.org/dc/dcmitype/StillImage" /><dc:title></dc:title></cc:Work></rdf:RDF></metadata><defs
     id="defs9" /><sodipodi:namedview
     pagecolor="#ffffff"
     bordercolor="#666666"
     borderopacity="1"
     objecttolerance="10"
     gridtolerance="10"
     guidetolerance="10"
     inkscape:pageopacity="0"
     inkscape:pageshadow="2"
     inkscape:window-width="859"
     inkscape:window-height="480"
     id="namedview7"
     showgrid="false"
     inkscape:zoom="0.64480874"
     inkscape:cx="-1.5508475"
     inkscape:cy="183"
     inkscape:window-x="0"
     inkscape:window-y="24"
     inkscape:window-maximized="0"
     inkscape:current-layer="Camada_1" /><g
     id="g3"
     style="fill:#545454;fill-opacity:1"><path
       d="M366,214.8c0-0.1,0-0.1,0-0.2c0,0,0-0.1,0-0.1c0-0.1,0-0.2,0-0.4c0-0.1,0-0.2,0-0.2c0-0.1,0-0.2,0-0.3c0-0.1,0-0.2-0.1-0.3   c0-0.1,0-0.2-0.1-0.2c0-0.1-0.1-0.2-0.1-0.4c0,0,0-0.1,0-0.1L311.1,61.1c9.8-3.3,16.9-12.6,16.9-23.6c0-3.3-2.7-5.9-5.9-5.9   c-3.3,0-5.9,2.7-5.9,5.9c0,7.2-5.9,13-13,13c-19.4,0-32.9-5.6-47.3-11.5c-15.4-6.3-31.3-12.9-55.2-13.7c-1.8-5.5-6.2-9.9-11.7-11.8   V5.9c0-3.3-2.7-5.9-5.9-5.9c-3.3,0-5.9,2.7-5.9,5.9v7.7c-5.5,1.9-9.9,6.2-11.7,11.8c-24,0.8-39.8,7.4-55.2,13.7   C95.8,45,82.2,50.6,62.8,50.6c-7.2,0-13-5.9-13-13c0-3.3-2.7-5.9-5.9-5.9s-5.9,2.7-5.9,5.9c0,10.9,7.1,20.3,16.9,23.6L0.4,212.6   c0,0,0,0.1,0,0.1c0,0.1-0.1,0.2-0.1,0.4c0,0.1,0,0.2-0.1,0.2c0,0.1,0,0.2-0.1,0.3c0,0.1,0,0.2,0,0.3c0,0.1,0,0.2,0,0.2   c0,0.1,0,0.2,0,0.4c0,0,0,0.1,0,0.1c0,0.1,0,0.1,0,0.2c0,0.1,0,0.1,0,0.2c0.1,12,7,23.2,19.3,31.4c11.7,7.8,27.2,12.1,43.5,12.1   s31.8-4.3,43.5-12.1c12.3-8.2,19.2-19.3,19.3-31.4c0-0.1,0-0.1,0-0.2c0-0.1,0-0.1,0-0.2c0,0,0-0.1,0-0.1c0-0.1,0-0.2,0-0.4   c0-0.1,0-0.2,0-0.2c0-0.1,0-0.2,0-0.3c0-0.1,0-0.2-0.1-0.3c0-0.1,0-0.2-0.1-0.2c0-0.1-0.1-0.2-0.1-0.4c0,0,0-0.1,0-0.1L71.2,62.1   c17.5-1.4,30.7-6.8,43.5-12.1c14.3-5.9,29.1-12,50.8-12.8c1.9,5.4,6.2,9.7,11.6,11.6v173.5c-7.3,2.5-12.6,9.4-12.6,17.6   c0,4.9,1.9,9.3,5,12.6c-3.1,3.3-5,7.8-5,12.6v63.6h-25.7c-10.2,0-18.6,8.3-18.6,18.6v12.6c0,3.3,2.7,5.9,5.9,5.9h113.8   c3.3,0,5.9-2.7,5.9-5.9v-12.6c0-10.2-8.3-18.6-18.6-18.6h-25.7v-63.6c0-4.9-1.9-9.3-5-12.6c3.1-3.3,5-7.8,5-12.6   c0-8.2-5.3-15.1-12.6-17.6V48.8c5.4-1.8,9.8-6.1,11.6-11.6c21.7,0.8,36.5,6.9,50.8,12.8c12.8,5.3,26,10.7,43.5,12.1l-54.2,150.5   c0,0,0,0.1,0,0.1c0,0.1-0.1,0.2-0.1,0.4c0,0.1,0,0.2-0.1,0.2c0,0.1,0,0.2-0.1,0.3c0,0.1,0,0.2,0,0.3c0,0.1,0,0.2,0,0.2   c0,0.1,0,0.2,0,0.4c0,0,0,0.1,0,0.1c0,0.1,0,0.1,0,0.2c0,0.1,0,0.1,0,0.2c0.1,12,7,23.2,19.3,31.4c11.7,7.8,27.2,12.1,43.5,12.1   c16.4,0,31.8-4.3,43.5-12.1C359,238.2,365.8,227,366,215C366,214.9,366,214.9,366,214.8L366,214.8z M62.8,74l48.5,134.7h-97   L62.8,74z M62.8,246.6c-24.4,0-45.5-11.4-50.1-26.1h100.1C108.3,235.2,87.3,246.6,62.8,246.6z M234,347.4v6.7H132v-6.7   c0-3.7,3-6.7,6.7-6.7h88.5C231,340.7,234,343.7,234,347.4z M176.3,328.8v-63.6c0-3.7,3-6.7,6.7-6.7c3.7,0,6.7,3,6.7,6.7v63.6H176.3   z M183,246.6c-3.7,0-6.7-3-6.7-6.7c0-3.7,3-6.7,6.7-6.7c3.7,0,6.7,3,6.7,6.7C189.7,243.6,186.7,246.6,183,246.6z M183,37.9   C183,37.9,183,37.9,183,37.9C183,37.9,183,37.9,183,37.9c-3.7,0-6.7-3-6.7-6.7c0-3.7,3-6.7,6.7-6.7c0,0,0,0,0,0s0,0,0,0   c3.7,0,6.7,3,6.7,6.7C189.7,34.9,186.7,37.9,183,37.9z M351.6,208.7h-97L303.2,74L351.6,208.7L351.6,208.7z M303.2,246.6   c-24.4,0-45.5-11.4-50.1-26.1h100.1C348.7,235.2,327.6,246.6,303.2,246.6L303.2,246.6z"
       id="path5"
       style="fill:#545454;fill-opacity:1" /></g></svg>