<?xml version="1.0" encoding="UTF-8" standalone="no"?>
<!-- Generator: Adobe Illustrator 21.1.0, SVG Export Plug-In . SVG Version: 6.00 Build 0)  -->

<svg
   xmlns:dc="http://purl.org/dc/elements/1.1/"
   xmlns:cc="http://creativecommons.org/ns#"
   xmlns:rdf="http://www.w3.org/1999/02/22-rdf-syntax-ns#"
   xmlns:svg="http://www.w3.org/2000/svg"
   xmlns="http://www.w3.org/2000/svg"
   xmlns:sodipodi="http://sodipodi.sourceforge.net/DTD/sodipodi-0.dtd"
   xmlns:inkscape="http://www.inkscape.org/namespaces/inkscape"
   version="1.1"
   id="Layer_1"
   x="0px"
   y="0px"
   viewBox="0 0 366 366"
   style="enable-background:new 0 0 366 366;"
   xml:space="preserve"
   inkscape:version="0.91 r13725"
   sodipodi:docname="lei-geral-de-acesso-informacao.svg"><metadata
     id="metadata9"><rdf:RDF><cc:Work
         rdf:about=""><dc:format>image/svg+xml</dc:format><dc:type
           rdf:resource="http://purl.org/dc/dcmitype/StillImage" /><dc:title></dc:title></cc:Work></rdf:RDF></metadata><defs
     id="defs7" /><sodipodi:namedview
     pagecolor="#ffffff"
     bordercolor="#666666"
     borderopacity="1"
     objecttolerance="10"
     gridtolerance="10"
     guidetolerance="10"
     inkscape:pageopacity="0"
     inkscape:pageshadow="2"
     inkscape:window-width="859"
     inkscape:window-height="480"
     id="namedview5"
     showgrid="false"
     inkscape:zoom="0.64480874"
     inkscape:cx="183"
     inkscape:cy="183"
     inkscape:window-x="10"
     inkscape:window-y="34"
     inkscape:window-maximized="0"
     inkscape:current-layer="Layer_1" /><path
     d="M286.4,366H79.6c-17.6,0-31.8-14.3-31.8-31.8V31.8C47.7,14.3,62,0,79.6,0h151c0,0,0,0,0.1,0h0.2l0,0c2.5,0,4.7,1.3,6.2,3.1  l78.2,78.2c1.9,1.5,3.1,3.6,3.1,6.2l0,0v0.2c0,0,0,0,0,0v246.4C318.3,351.7,304,366,286.4,366z M238.7,26.9v52.7h52.7L238.7,26.9z   M302.3,95.5h-71.6c-4.4,0-8-3.6-8-8V15.9H79.6c-8.8,0-15.9,7.1-15.9,15.9v302.3c0,8.8,7.1,15.9,15.9,15.9h206.9  c8.8,0,15.9-7.1,15.9-15.9V95.5z M254.6,302.3H111.4c-4.4,0-8-3.6-8-8c0-4.4,3.6-8,8-8h143.2c4.4,0,8,3.6,8,8  C262.6,298.8,259,302.3,254.6,302.3z M254.6,238.7H111.4c-4.4,0-8-3.6-8-8c0-4.4,3.6-8,8-8h143.2c4.4,0,8,3.6,8,8  C262.6,235.1,259,238.7,254.6,238.7z M254.6,175H111.4c-4.4,0-8-3.6-8-8c0-4.4,3.6-8,8-8h143.2c4.4,0,8,3.6,8,8  C262.6,171.5,259,175,254.6,175z"
     id="path3"
     style="fill:#545454;fill-opacity:1" /></svg>