<?xml version="1.0" encoding="UTF-8" standalone="no"?>
<!-- Generator: Adobe Illustrator 21.1.0, SVG Export Plug-In . SVG Version: 6.00 Build 0)  -->

<svg
   xmlns:dc="http://purl.org/dc/elements/1.1/"
   xmlns:cc="http://creativecommons.org/ns#"
   xmlns:rdf="http://www.w3.org/1999/02/22-rdf-syntax-ns#"
   xmlns:svg="http://www.w3.org/2000/svg"
   xmlns="http://www.w3.org/2000/svg"
   xmlns:sodipodi="http://sodipodi.sourceforge.net/DTD/sodipodi-0.dtd"
   xmlns:inkscape="http://www.inkscape.org/namespaces/inkscape"
   version="1.1"
   id="Layer_1"
   x="0px"
   y="0px"
   viewBox="0 0 366 366"
   style="enable-background:new 0 0 366 366;"
   xml:space="preserve"
   inkscape:version="0.91 r13725"
   sodipodi:docname="portal-da-transparencia.svg"><metadata
     id="metadata66"><rdf:RDF><cc:Work
         rdf:about=""><dc:format>image/svg+xml</dc:format><dc:type
           rdf:resource="http://purl.org/dc/dcmitype/StillImage" /><dc:title></dc:title></cc:Work></rdf:RDF></metadata><defs
     id="defs64" /><sodipodi:namedview
     pagecolor="#ffffff"
     bordercolor="#666666"
     borderopacity="1"
     objecttolerance="10"
     gridtolerance="10"
     guidetolerance="10"
     inkscape:pageopacity="0"
     inkscape:pageshadow="2"
     inkscape:window-width="1366"
     inkscape:window-height="744"
     id="namedview62"
     showgrid="false"
     inkscape:zoom="0.64480874"
     inkscape:cx="-174.47034"
     inkscape:cy="183"
     inkscape:window-x="0"
     inkscape:window-y="24"
     inkscape:window-maximized="1"
     inkscape:current-layer="Layer_1" /><path
     d="M334.2,270.5H224.3c4.7,26.3,20.5,44.3,35,55.7h19.1c4.4,0,8,3.6,8,8s-3.6,8-8,8h-191c-4.4,0-8-3.6-8-8s3.6-8,8-8h19.1  c14.5-11.4,30.3-29.4,35-55.7H31.8C14.3,270.5,0,256.3,0,238.7v-183c0-17.6,14.3-31.8,31.8-31.8h302.3c17.6,0,31.8,14.3,31.8,31.8  v183C366,256.3,351.7,270.5,334.2,270.5z M130.5,326.2h105.1c-12.7-13.4-24-31.6-27.5-55.7h-50C154.5,294.6,143.2,312.8,130.5,326.2  z M350.1,55.7c0-8.8-7.1-15.9-15.9-15.9H31.8c-8.8,0-15.9,7.1-15.9,15.9v151.2l0,0h334.2V55.7z M350.1,222.8H15.9l0,0v15.9  c0,8.8,7.1,15.9,15.9,15.9h111.4l0,0h79.6l0,0h111.4c8.8,0,15.9-7.1,15.9-15.9V222.8z M183,246.7c-4.4,0-8-3.6-8-8c0-4.4,3.6-8,8-8  s8,3.6,8,8C191,243.1,187.4,246.7,183,246.7z"
     id="path60"
     style="fill:#545454;fill-opacity:1" /></svg>